<svg width="51" height="44" viewBox="0 0 51 44" fill="none" xmlns="http://www.w3.org/2000/svg">
<g clip-path="url(#clip0)">
<rect width="1438" height="10150" transform="translate(-810 -4121)" fill="white"/>
<g filter="url(#filter0_d)">
<rect x="-44" y="-563" width="506" height="509" fill="#131313"/>
</g>
<g filter="url(#filter1_d)">
<circle cx="24.5" cy="20.4424" r="36" fill="#E3B873"/>
</g>
<path d="M24.8396 27.7206C24.4614 27.7206 24.1526 28.0199 24.1526 28.3917V29.7163C24.1526 30.0881 24.4614 30.3873 24.8396 30.3873C25.2178 30.3873 25.5265 30.0881 25.5265 29.7163V28.3917C25.5265 28.0199 25.2178 27.7206 24.8396 27.7206Z" fill="white" stroke="white" stroke-width="0.1"/>
<path d="M41.5581 18.4428L41.5581 18.4427C41.1069 16.2849 40.0951 14.2508 38.6321 12.5602C37.2237 10.9326 35.4214 9.65133 33.4118 8.84368C33.0828 7.50765 32.3927 6.13004 31.0386 5.09265C29.7205 4.08288 28.3931 3.88824 28.3338 3.87992L28.3338 3.87991C28.1374 3.85261 27.9377 3.9096 27.7872 4.03689C27.6366 4.16422 27.5498 4.34918 27.5498 4.54422V7.84776H25.3254C24.736 5.93366 22.9142 4.53565 20.7634 4.53565C18.5652 4.53565 16.7096 5.99559 16.1632 7.97472C13.0152 8.40046 10.1197 9.89118 7.96924 12.2047L8.00586 12.2387L7.96924 12.2047C5.69996 14.6462 4.45 17.807 4.45 21.1048C4.45 28.4944 8.38387 34.5047 9.5891 36.1702C9.97046 36.6973 10.5945 37.0115 11.2582 37.0115H13.9692C15.0961 37.0115 16.015 36.1174 16.015 35.0156V34.214C16.6849 34.3117 17.3649 34.3618 18.0457 34.3618H24.1528V35.0156C24.1528 36.1174 25.0717 37.0115 26.1986 37.0115H29.1765C30.134 37.0115 30.9756 36.3491 31.1767 35.4341L31.4969 33.9776C35.673 32.976 39.0324 30.1195 40.6959 26.4129H43.1837C43.9359 26.4129 44.55 25.816 44.55 25.0795V19.78C44.55 19.4234 44.4075 19.0882 44.1493 18.8365C43.8912 18.5849 43.5483 18.4465 43.1838 18.4465H43.1837H43.1837H43.1837H43.1836H43.1836H43.1836H43.1835L41.5592 18.4467C41.5587 18.4454 41.5584 18.4441 41.5581 18.4428ZM43.1762 25.0293H43.1761V25.0708H41.2111C41.5469 24.0272 41.7538 22.9313 41.8138 21.802C41.8337 21.4307 41.5411 21.1162 41.1633 21.0971C40.7857 21.0784 40.4615 21.3611 40.4418 21.7324C40.1746 26.755 36.6861 31.0486 31.8218 32.4988L32.6936 28.5325C32.7736 28.1689 32.5358 27.8128 32.1656 27.7355C31.7961 27.658 31.4301 27.8876 31.3503 28.2508L29.8334 35.1523C29.7678 35.4509 29.4919 35.6694 29.1765 35.6694H26.1984C25.8268 35.6694 25.5266 35.3748 25.5266 35.0156V32.3658C25.5266 31.994 25.2178 31.6948 24.8396 31.6948C24.4614 31.6948 24.1527 31.994 24.1527 32.3658V33.0197H18.0455C17.3637 33.0197 16.6831 32.9637 16.0148 32.8549V28.3914C16.0148 28.0196 15.7061 27.7204 15.3279 27.7204C14.9497 27.7204 14.6409 28.0196 14.6409 28.3914V35.0156C14.6409 35.3749 14.3407 35.6695 13.9691 35.6695H11.2582C11.0355 35.6695 10.8366 35.5694 10.7111 35.3957L10.7111 35.3957C9.56414 33.8104 5.82391 28.0966 5.82391 21.1047C5.82391 18.1413 6.94692 15.301 8.98639 13.1068L8.94977 13.0728L8.98639 13.1068C10.8401 11.1124 13.3092 9.79824 16.0037 9.35608C16.0187 9.74406 16.0834 10.1276 16.195 10.4974H16.0074C15.6292 10.4974 15.3205 10.7966 15.3205 11.1684C15.3205 11.5402 15.6292 11.8395 16.0074 11.8395H25.5191C25.8974 11.8395 26.2061 11.5402 26.2061 11.1684C26.2061 10.7966 25.8974 10.4974 25.5191 10.4974H25.3315C25.4592 10.0749 25.5258 9.63439 25.5266 9.18974H27.5498V10.506C27.5498 10.8778 27.8585 11.177 28.2367 11.177C28.6149 11.177 28.9237 10.8778 28.9237 10.506V5.43193C29.5183 5.66114 30.343 6.1096 31.0288 6.96507C31.7404 7.85262 32.3056 9.18202 32.3056 11.1685C32.3056 11.5403 32.6144 11.8395 32.9926 11.8395C33.3708 11.8395 33.6795 11.5403 33.6795 11.1685C33.6795 10.9306 33.6716 10.6808 33.6536 10.4229C35.1527 11.1478 36.4978 12.1728 37.5829 13.4267C38.8977 14.9462 39.8068 16.7736 40.212 18.7114C40.3426 19.3363 40.9049 19.7889 41.5487 19.7888L43.1762 19.7887V25.0293ZM20.7633 5.87779C22.6334 5.87779 24.1527 7.36098 24.1527 9.18133C24.1527 9.63615 24.0552 10.0844 23.871 10.4975H17.6555C17.4714 10.0843 17.3737 9.63614 17.3737 9.18133C17.3737 7.36091 18.8931 5.87779 20.7633 5.87779Z" fill="white" stroke="white" stroke-width="0.1"/>
<path d="M32.4116 18.8828L32.4116 18.8828C32.815 17.8281 33.8808 17.1218 35.0621 17.1218C36.2433 17.1218 37.3093 17.8281 37.7125 18.8828L32.4116 18.8828ZM32.4116 18.8828C32.2784 19.2312 32.4605 19.6175 32.8155 19.7465M32.4116 18.8828L32.8155 19.7465M32.8155 19.7465C33.17 19.8755 33.5657 19.7001 33.6986 19.3524L32.8155 19.7465ZM33.6986 19.3524C33.9011 18.8229 34.4479 18.4638 35.062 18.4638C35.6761 18.4638 36.223 18.8229 36.4255 19.3524C36.5289 19.6229 36.7913 19.7888 37.0691 19.7888C37.1488 19.7888 37.2297 19.7752 37.3086 19.7465C37.3086 19.7465 37.3086 19.7465 37.3086 19.7465L37.2915 19.6995L33.6986 19.3524Z" fill="white" stroke="white" stroke-width="0.1"/>
<path d="M23.7116 21.5181C23.0601 21.0763 22.2201 20.8056 21.4502 20.5933V17.5143C22.0451 17.5915 22.5484 17.7638 22.9047 17.9765C23.2758 18.1982 23.4733 18.4545 23.4733 18.683C23.4733 19.0548 23.7821 19.354 24.1603 19.354C24.5385 19.354 24.8472 19.0548 24.8472 18.683C24.8472 18.0274 24.4732 17.4413 23.8589 16.9981C23.254 16.5617 22.4127 16.2606 21.4502 16.1628V16.1368C21.4502 15.765 21.1414 15.4657 20.7632 15.4657C20.385 15.4657 20.0763 15.765 20.0763 16.1368V16.1628C19.1138 16.2606 18.2724 16.5617 17.6676 16.9981C17.0533 17.4413 16.6792 18.0274 16.6792 18.683C16.6792 19.6105 17.1508 20.2414 17.8149 20.6918C18.4663 21.1336 19.3064 21.4043 20.0763 21.6166V24.6955C19.4814 24.6184 18.9781 24.4461 18.6218 24.2333C18.2506 24.0117 18.0532 23.7554 18.0532 23.5269C18.0532 23.1551 17.7444 22.8559 17.3662 22.8559C16.988 22.8559 16.6792 23.1551 16.6792 23.5269C16.6792 24.1825 17.0533 24.7686 17.6676 25.2118C18.2724 25.6482 19.1138 25.9492 20.0763 26.0471V26.0731C20.0763 26.4449 20.385 26.7441 20.7632 26.7441C21.1414 26.7441 21.4502 26.4449 21.4502 26.0731V26.0471C22.4127 25.9492 23.254 25.6482 23.8589 25.2118C24.4732 24.7686 24.8472 24.1825 24.8472 23.5269C24.8472 22.5993 24.3757 21.9684 23.7116 21.5181ZM20.0763 17.5143V20.2105C19.3286 19.9782 18.8248 19.757 18.5067 19.5156C18.1827 19.2699 18.0532 19.0051 18.0532 18.683C18.0532 18.4545 18.2506 18.1982 18.6218 17.9765C18.9781 17.7638 19.4814 17.5915 20.0763 17.5143ZM22.9047 24.2334C22.5484 24.4462 22.045 24.6185 21.4502 24.6956V21.9994C22.1979 22.2317 22.7016 22.4529 23.0198 22.6943C23.3437 22.94 23.4733 23.2049 23.4733 23.527C23.4733 23.7554 23.2758 24.0117 22.9047 24.2334Z" fill="white" stroke="white" stroke-width="0.1"/>
</g>
<defs>
<filter id="filter0_d" x="-74" y="-563" width="566" height="569" filterUnits="userSpaceOnUse" color-interpolation-filters="sRGB">
<feFlood flood-opacity="0" result="BackgroundImageFix"/>
<feColorMatrix in="SourceAlpha" type="matrix" values="0 0 0 0 0 0 0 0 0 0 0 0 0 0 0 0 0 0 127 0"/>
<feOffset dy="30"/>
<feGaussianBlur stdDeviation="15"/>
<feColorMatrix type="matrix" values="0 0 0 0 0 0 0 0 0 0 0 0 0 0 0 0 0 0 0.05 0"/>
<feBlend mode="normal" in2="BackgroundImageFix" result="effect1_dropShadow"/>
<feBlend mode="normal" in="SourceGraphic" in2="effect1_dropShadow" result="shape"/>
</filter>
<filter id="filter1_d" x="-31.5" y="-25.5576" width="112" height="112" filterUnits="userSpaceOnUse" color-interpolation-filters="sRGB">
<feFlood flood-opacity="0" result="BackgroundImageFix"/>
<feColorMatrix in="SourceAlpha" type="matrix" values="0 0 0 0 0 0 0 0 0 0 0 0 0 0 0 0 0 0 127 0"/>
<feOffset dy="10"/>
<feGaussianBlur stdDeviation="10"/>
<feColorMatrix type="matrix" values="0 0 0 0 0.929412 0 0 0 0 0.752941 0 0 0 0 0.470588 0 0 0 0.2 0"/>
<feBlend mode="normal" in2="BackgroundImageFix" result="effect1_dropShadow"/>
<feBlend mode="normal" in="SourceGraphic" in2="effect1_dropShadow" result="shape"/>
</filter>
<clipPath id="clip0">
<rect width="1438" height="10150" fill="white" transform="translate(-810 -4121)"/>
</clipPath>
</defs>
</svg>
